<svg xmlns="http://www.w3.org/2000/svg" width="920" height="500" viewBox="0 0 920 500" role="img"><rect width="100%" height="100%" fill="#ffffff" /><text x="24.00" y="30.00" font-family="Arial, Helvetica, sans-serif" font-size="18" font-weight="700" fill="#0f172a" text-anchor="start">Data coverage by class</text><text x="24.00" y="52.00" font-family="Arial, Helvetica, sans-serif" font-size="11" font-weight="400" fill="#475569" text-anchor="start">Coverage is row-level compatibility for rates, not a source-completeness claim.</text><line x1="24" y1="60" x2="896" y2="60" stroke="#e2e8f0" /><rect x="90" y="70" width="12" height="12" fill="#0f766e" /><text x="108.00" y="80.00" font-family="Arial, Helvetica, sans-serif" font-size="10" font-weight="400" fill="#0f172a" text-anchor="start">compatible</text><rect x="194" y="70" width="12" height="12" fill="#dc2626" /><text x="212.00" y="80.00" font-family="Arial, Helvetica, sans-serif" font-size="10" font-weight="400" fill="#0f172a" text-anchor="start">NMSF gap</text><rect x="286" y="70" width="12" height="12" fill="#b45309" /><text x="304.00" y="80.00" font-family="Arial, Helvetica, sans-serif" font-size="10" font-weight="400" fill="#0f172a" text-anchor="start">denominator gap</text><rect x="420" y="70" width="12" height="12" fill="#7c2d12" /><text x="438.00" y="80.00" font-family="Arial, Helvetica, sans-serif" font-size="10" font-weight="400" fill="#0f172a" text-anchor="start">both gaps</text><rect x="518" y="70" width="12" height="12" fill="#94a3b8" /><text x="536.00" y="80.00" font-family="Arial, Helvetica, sans-serif" font-size="10" font-weight="400" fill="#0f172a" text-anchor="start">not operating</text><text x="74.00" y="119.00" font-family="Arial, Helvetica, sans-serif" font-size="11" font-weight="700" fill="#0f172a" text-anchor="end">2019</text><rect x="90.00" y="102" width="259.87" height="24" fill="#0f766e" /><text x="219.93" y="118.00" font-family="Arial, Helvetica, sans-serif" font-size="9" font-weight="400" fill="#ffffff" text-anchor="middle">25</text><rect x="349.87" y="102" width="374.21" height="24" fill="#dc2626" /><text x="536.97" y="118.00" font-family="Arial, Helvetica, sans-serif" font-size="9" font-weight="400" fill="#ffffff" text-anchor="middle">36</text><rect x="724.08" y="102" width="0.00" height="24" fill="#b45309" /><rect x="724.08" y="102" width="124.74" height="24" fill="#7c2d12" /><text x="786.45" y="118.00" font-family="Arial, Helvetica, sans-serif" font-size="9" font-weight="400" fill="#ffffff" text-anchor="middle">12</text><rect x="848.82" y="102" width="31.18" height="24" fill="#94a3b8" /><text x="864.41" y="118.00" font-family="Arial, Helvetica, sans-serif" font-size="9" font-weight="400" fill="#ffffff" text-anchor="middle">3</text><text x="888.00" y="119.00" font-family="Arial, Helvetica, sans-serif" font-size="10" font-weight="400" fill="#475569" text-anchor="start">76</text><text x="74.00" y="155.00" font-family="Arial, Helvetica, sans-serif" font-size="11" font-weight="700" fill="#0f172a" text-anchor="end">2020</text><rect x="90.00" y="138" width="259.87" height="24" fill="#0f766e" /><text x="219.93" y="154.00" font-family="Arial, Helvetica, sans-serif" font-size="9" font-weight="400" fill="#ffffff" text-anchor="middle">25</text><rect x="349.87" y="138" width="301.45" height="24" fill="#dc2626" /><text x="500.59" y="154.00" font-family="Arial, Helvetica, sans-serif" font-size="9" font-weight="400" fill="#ffffff" text-anchor="middle">29</text><rect x="651.32" y="138" width="0.00" height="24" fill="#b45309" /><rect x="651.32" y="138" width="197.50" height="24" fill="#7c2d12" /><text x="750.07" y="154.00" font-family="Arial, Helvetica, sans-serif" font-size="9" font-weight="400" fill="#ffffff" text-anchor="middle">19</text><rect x="848.82" y="138" width="31.18" height="24" fill="#94a3b8" /><text x="864.41" y="154.00" font-family="Arial, Helvetica, sans-serif" font-size="9" font-weight="400" fill="#ffffff" text-anchor="middle">3</text><text x="888.00" y="155.00" font-family="Arial, Helvetica, sans-serif" font-size="10" font-weight="400" fill="#475569" text-anchor="start">76</text><text x="74.00" y="191.00" font-family="Arial, Helvetica, sans-serif" font-size="11" font-weight="700" fill="#0f172a" text-anchor="end">2021</text><rect x="90.00" y="174" width="259.87" height="24" fill="#0f766e" /><text x="219.93" y="190.00" font-family="Arial, Helvetica, sans-serif" font-size="9" font-weight="400" fill="#ffffff" text-anchor="middle">25</text><rect x="349.87" y="174" width="395.00" height="24" fill="#dc2626" /><text x="547.37" y="190.00" font-family="Arial, Helvetica, sans-serif" font-size="9" font-weight="400" fill="#ffffff" text-anchor="middle">38</text><rect x="744.87" y="174" width="0.00" height="24" fill="#b45309" /><rect x="744.87" y="174" width="114.34" height="24" fill="#7c2d12" /><text x="802.04" y="190.00" font-family="Arial, Helvetica, sans-serif" font-size="9" font-weight="400" fill="#ffffff" text-anchor="middle">11</text><rect x="859.21" y="174" width="20.79" height="24" fill="#94a3b8" /><text x="888.00" y="191.00" font-family="Arial, Helvetica, sans-serif" font-size="10" font-weight="400" fill="#475569" text-anchor="start">76</text><text x="74.00" y="227.00" font-family="Arial, Helvetica, sans-serif" font-size="11" font-weight="700" fill="#0f172a" text-anchor="end">2022</text><rect x="90.00" y="210" width="259.87" height="24" fill="#0f766e" /><text x="219.93" y="226.00" font-family="Arial, Helvetica, sans-serif" font-size="9" font-weight="400" fill="#ffffff" text-anchor="middle">25</text><rect x="349.87" y="210" width="322.24" height="24" fill="#dc2626" /><text x="510.99" y="226.00" font-family="Arial, Helvetica, sans-serif" font-size="9" font-weight="400" fill="#ffffff" text-anchor="middle">31</text><rect x="672.11" y="210" width="0.00" height="24" fill="#b45309" /><rect x="672.11" y="210" width="197.50" height="24" fill="#7c2d12" /><text x="770.86" y="226.00" font-family="Arial, Helvetica, sans-serif" font-size="9" font-weight="400" fill="#ffffff" text-anchor="middle">19</text><rect x="869.61" y="210" width="10.39" height="24" fill="#94a3b8" /><text x="888.00" y="227.00" font-family="Arial, Helvetica, sans-serif" font-size="10" font-weight="400" fill="#475569" text-anchor="start">76</text><text x="74.00" y="263.00" font-family="Arial, Helvetica, sans-serif" font-size="11" font-weight="700" fill="#0f172a" text-anchor="end">2023</text><rect x="90.00" y="246" width="602.89" height="24" fill="#0f766e" /><text x="391.45" y="262.00" font-family="Arial, Helvetica, sans-serif" font-size="9" font-weight="400" fill="#ffffff" text-anchor="middle">58</text><rect x="692.89" y="246" width="93.55" height="24" fill="#dc2626" /><text x="739.67" y="262.00" font-family="Arial, Helvetica, sans-serif" font-size="9" font-weight="400" fill="#ffffff" text-anchor="middle">9</text><rect x="786.45" y="246" width="51.97" height="24" fill="#b45309" /><text x="812.43" y="262.00" font-family="Arial, Helvetica, sans-serif" font-size="9" font-weight="400" fill="#ffffff" text-anchor="middle">5</text><rect x="838.42" y="246" width="41.58" height="24" fill="#7c2d12" /><text x="859.21" y="262.00" font-family="Arial, Helvetica, sans-serif" font-size="9" font-weight="400" fill="#ffffff" text-anchor="middle">4</text><rect x="880.00" y="246" width="0.00" height="24" fill="#94a3b8" /><text x="888.00" y="263.00" font-family="Arial, Helvetica, sans-serif" font-size="10" font-weight="400" fill="#475569" text-anchor="start">76</text><text x="74.00" y="299.00" font-family="Arial, Helvetica, sans-serif" font-size="11" font-weight="700" fill="#0f172a" text-anchor="end">2024</text><rect x="90.00" y="282" width="582.11" height="24" fill="#0f766e" /><text x="381.05" y="298.00" font-family="Arial, Helvetica, sans-serif" font-size="9" font-weight="400" fill="#ffffff" text-anchor="middle">56</text><rect x="672.11" y="282" width="10.39" height="24" fill="#dc2626" /><rect x="682.50" y="282" width="83.16" height="24" fill="#b45309" /><text x="724.08" y="298.00" font-family="Arial, Helvetica, sans-serif" font-size="9" font-weight="400" fill="#ffffff" text-anchor="middle">8</text><rect x="765.66" y="282" width="114.34" height="24" fill="#7c2d12" /><text x="822.83" y="298.00" font-family="Arial, Helvetica, sans-serif" font-size="9" font-weight="400" fill="#ffffff" text-anchor="middle">11</text><rect x="880.00" y="282" width="0.00" height="24" fill="#94a3b8" /><text x="888.00" y="299.00" font-family="Arial, Helvetica, sans-serif" font-size="10" font-weight="400" fill="#475569" text-anchor="start">76</text><text x="74.00" y="335.00" font-family="Arial, Helvetica, sans-serif" font-size="11" font-weight="700" fill="#0f172a" text-anchor="end">2025</text><rect x="90.00" y="318" width="540.53" height="24" fill="#0f766e" /><text x="360.26" y="334.00" font-family="Arial, Helvetica, sans-serif" font-size="9" font-weight="400" fill="#ffffff" text-anchor="middle">52</text><rect x="630.53" y="318" width="51.97" height="24" fill="#dc2626" /><text x="656.51" y="334.00" font-family="Arial, Helvetica, sans-serif" font-size="9" font-weight="400" fill="#ffffff" text-anchor="middle">5</text><rect x="682.50" y="318" width="197.50" height="24" fill="#b45309" /><text x="781.25" y="334.00" font-family="Arial, Helvetica, sans-serif" font-size="9" font-weight="400" fill="#ffffff" text-anchor="middle">19</text><rect x="880.00" y="318" width="0.00" height="24" fill="#7c2d12" /><rect x="880.00" y="318" width="0.00" height="24" fill="#94a3b8" /><text x="888.00" y="335.00" font-family="Arial, Helvetica, sans-serif" font-size="10" font-weight="400" fill="#475569" text-anchor="start">76</text><text x="74.00" y="371.00" font-family="Arial, Helvetica, sans-serif" font-size="11" font-weight="700" fill="#0f172a" text-anchor="end">2026</text><rect x="90.00" y="354" width="602.89" height="24" fill="#0f766e" /><text x="391.45" y="370.00" font-family="Arial, Helvetica, sans-serif" font-size="9" font-weight="400" fill="#ffffff" text-anchor="middle">58</text><rect x="692.89" y="354" width="10.39" height="24" fill="#dc2626" /><rect x="703.29" y="354" width="114.34" height="24" fill="#b45309" /><text x="760.46" y="370.00" font-family="Arial, Helvetica, sans-serif" font-size="9" font-weight="400" fill="#ffffff" text-anchor="middle">11</text><rect x="817.63" y="354" width="62.37" height="24" fill="#7c2d12" /><text x="848.82" y="370.00" font-family="Arial, Helvetica, sans-serif" font-size="9" font-weight="400" fill="#ffffff" text-anchor="middle">6</text><rect x="880.00" y="354" width="0.00" height="24" fill="#94a3b8" /><text x="888.00" y="371.00" font-family="Arial, Helvetica, sans-serif" font-size="10" font-weight="400" fill="#475569" text-anchor="start">76</text><text x="24.00" y="476.00" font-family="Arial, Helvetica, sans-serif" font-size="10" font-weight="400" fill="#475569" text-anchor="start">A compatible row has a numeric NMSF count and grade 11 enrollment; gaps remain visible.</text></svg>
