<svg xmlns="http://www.w3.org/2000/svg" width="920" height="520" viewBox="0 0 920 520" role="img"><rect width="100%" height="100%" fill="#ffffff" /><text x="24.00" y="30.00" font-family="Arial, Helvetica, sans-serif" font-size="18" font-weight="700" fill="#0f172a" text-anchor="start">TJ-zone observed counts with and without TJHSST</text><text x="24.00" y="52.00" font-family="Arial, Helvetica, sans-serif" font-size="11" font-weight="400" fill="#475569" text-anchor="start">The without-TJHSST line keeps all other source-backed public and private rows.</text><line x1="24" y1="60" x2="896" y2="60" stroke="#e2e8f0" /><line x1="78" y1="438" x2="884" y2="438" stroke="#334155" /><line x1="78" y1="98" x2="78" y2="438" stroke="#334155" /><line x1="73" y1="438.00" x2="884" y2="438.00" stroke="#e2e8f0" /><text x="68.00" y="442.00" font-family="Arial, Helvetica, sans-serif" font-size="10" font-weight="400" fill="#0f172a" text-anchor="end">0</text><line x1="73" y1="370.00" x2="884" y2="370.00" stroke="#e2e8f0" /><text x="68.00" y="374.00" font-family="Arial, Helvetica, sans-serif" font-size="10" font-weight="400" fill="#0f172a" text-anchor="end">100</text><line x1="73" y1="302.00" x2="884" y2="302.00" stroke="#e2e8f0" /><text x="68.00" y="306.00" font-family="Arial, Helvetica, sans-serif" font-size="10" font-weight="400" fill="#0f172a" text-anchor="end">200</text><line x1="73" y1="234.00" x2="884" y2="234.00" stroke="#e2e8f0" /><text x="68.00" y="238.00" font-family="Arial, Helvetica, sans-serif" font-size="10" font-weight="400" fill="#0f172a" text-anchor="end">300</text><line x1="73" y1="166.00" x2="884" y2="166.00" stroke="#e2e8f0" /><text x="68.00" y="170.00" font-family="Arial, Helvetica, sans-serif" font-size="10" font-weight="400" fill="#0f172a" text-anchor="end">400</text><line x1="73" y1="98.00" x2="884" y2="98.00" stroke="#e2e8f0" /><text x="68.00" y="102.00" font-family="Arial, Helvetica, sans-serif" font-size="10" font-weight="400" fill="#0f172a" text-anchor="end">500</text><text x="22.00" y="268.00" font-family="Arial, Helvetica, sans-serif" font-size="11" font-weight="400" fill="#0f172a" text-anchor="middle" transform="rotate(-90 22.00 268.00)">Observed NMSF count</text><text x="78.00" y="464.00" font-family="Arial, Helvetica, sans-serif" font-size="11" font-weight="400" fill="#0f172a" text-anchor="middle">2019</text><text x="193.14" y="464.00" font-family="Arial, Helvetica, sans-serif" font-size="11" font-weight="400" fill="#0f172a" text-anchor="middle">2020</text><text x="308.29" y="464.00" font-family="Arial, Helvetica, sans-serif" font-size="11" font-weight="400" fill="#0f172a" text-anchor="middle">2021</text><text x="423.43" y="464.00" font-family="Arial, Helvetica, sans-serif" font-size="11" font-weight="400" fill="#0f172a" text-anchor="middle">2022</text><text x="538.57" y="464.00" font-family="Arial, Helvetica, sans-serif" font-size="11" font-weight="400" fill="#0f172a" text-anchor="middle">2023</text><text x="653.71" y="464.00" font-family="Arial, Helvetica, sans-serif" font-size="11" font-weight="400" fill="#0f172a" text-anchor="middle">2024</text><text x="768.86" y="464.00" font-family="Arial, Helvetica, sans-serif" font-size="11" font-weight="400" fill="#0f172a" text-anchor="middle">2025</text><text x="884.00" y="464.00" font-family="Arial, Helvetica, sans-serif" font-size="11" font-weight="400" fill="#0f172a" text-anchor="middle">2026</text><rect x="78" y="68" width="12" height="12" fill="#4f46e5" /><text x="96.00" y="78.00" font-family="Arial, Helvetica, sans-serif" font-size="10" font-weight="400" fill="#0f172a" text-anchor="start">All schools including TJHSST</text><polyline points="78.00,265.28 193.14,276.84 308.29,293.84 423.43,291.80 538.57,217.00 653.71,188.44 768.86,242.16 884.00,176.20" fill="none" stroke="#4f46e5" stroke-width="2.5" stroke-linejoin="round" stroke-linecap="round" /><circle cx="78.00" cy="265.28" r="4" fill="#4f46e5" stroke="#ffffff" /><text x="78.00" y="257.28" font-family="Arial, Helvetica, sans-serif" font-size="9" font-weight="400" fill="#4f46e5" text-anchor="middle">254</text><circle cx="193.14" cy="276.84" r="4" fill="#4f46e5" stroke="#ffffff" /><text x="193.14" y="268.84" font-family="Arial, Helvetica, sans-serif" font-size="9" font-weight="400" fill="#4f46e5" text-anchor="middle">237</text><circle cx="308.29" cy="293.84" r="4" fill="#4f46e5" stroke="#ffffff" /><text x="308.29" y="285.84" font-family="Arial, Helvetica, sans-serif" font-size="9" font-weight="400" fill="#4f46e5" text-anchor="middle">212</text><circle cx="423.43" cy="291.80" r="4" fill="#4f46e5" stroke="#ffffff" /><text x="423.43" y="283.80" font-family="Arial, Helvetica, sans-serif" font-size="9" font-weight="400" fill="#4f46e5" text-anchor="middle">215</text><circle cx="538.57" cy="217.00" r="4" fill="#4f46e5" stroke="#ffffff" /><text x="538.57" y="209.00" font-family="Arial, Helvetica, sans-serif" font-size="9" font-weight="400" fill="#4f46e5" text-anchor="middle">325</text><circle cx="653.71" cy="188.44" r="4" fill="#4f46e5" stroke="#ffffff" /><text x="653.71" y="180.44" font-family="Arial, Helvetica, sans-serif" font-size="9" font-weight="400" fill="#4f46e5" text-anchor="middle">367</text><circle cx="768.86" cy="242.16" r="4" fill="#4f46e5" stroke="#ffffff" /><text x="768.86" y="234.16" font-family="Arial, Helvetica, sans-serif" font-size="9" font-weight="400" fill="#4f46e5" text-anchor="middle">288</text><circle cx="884.00" cy="176.20" r="4" fill="#4f46e5" stroke="#ffffff" /><text x="884.00" y="168.20" font-family="Arial, Helvetica, sans-serif" font-size="9" font-weight="400" fill="#4f46e5" text-anchor="middle">385</text><rect x="286" y="68" width="12" height="12" fill="#64748b" /><text x="304.00" y="78.00" font-family="Arial, Helvetica, sans-serif" font-size="10" font-weight="400" fill="#0f172a" text-anchor="start">All schools excluding TJHSST</text><polyline points="78.00,373.40 193.14,383.60 308.29,383.60 423.43,389.72 538.57,306.76 653.71,300.64 768.86,297.24 884.00,253.04" fill="none" stroke="#64748b" stroke-width="2.5" stroke-linejoin="round" stroke-linecap="round" /><circle cx="78.00" cy="373.40" r="4" fill="#64748b" stroke="#ffffff" /><text x="78.00" y="365.40" font-family="Arial, Helvetica, sans-serif" font-size="9" font-weight="400" fill="#64748b" text-anchor="middle">95</text><circle cx="193.14" cy="383.60" r="4" fill="#64748b" stroke="#ffffff" /><text x="193.14" y="375.60" font-family="Arial, Helvetica, sans-serif" font-size="9" font-weight="400" fill="#64748b" text-anchor="middle">80</text><circle cx="308.29" cy="383.60" r="4" fill="#64748b" stroke="#ffffff" /><text x="308.29" y="375.60" font-family="Arial, Helvetica, sans-serif" font-size="9" font-weight="400" fill="#64748b" text-anchor="middle">80</text><circle cx="423.43" cy="389.72" r="4" fill="#64748b" stroke="#ffffff" /><text x="423.43" y="381.72" font-family="Arial, Helvetica, sans-serif" font-size="9" font-weight="400" fill="#64748b" text-anchor="middle">71</text><circle cx="538.57" cy="306.76" r="4" fill="#64748b" stroke="#ffffff" /><text x="538.57" y="298.76" font-family="Arial, Helvetica, sans-serif" font-size="9" font-weight="400" fill="#64748b" text-anchor="middle">193</text><circle cx="653.71" cy="300.64" r="4" fill="#64748b" stroke="#ffffff" /><text x="653.71" y="292.64" font-family="Arial, Helvetica, sans-serif" font-size="9" font-weight="400" fill="#64748b" text-anchor="middle">202</text><circle cx="768.86" cy="297.24" r="4" fill="#64748b" stroke="#ffffff" /><text x="768.86" y="289.24" font-family="Arial, Helvetica, sans-serif" font-size="9" font-weight="400" fill="#64748b" text-anchor="middle">207</text><circle cx="884.00" cy="253.04" r="4" fill="#64748b" stroke="#ffffff" /><text x="884.00" y="245.04" font-family="Arial, Helvetica, sans-serif" font-size="9" font-weight="400" fill="#64748b" text-anchor="middle">272</text><rect x="494" y="68" width="12" height="12" fill="#1d4ed8" /><text x="512.00" y="78.00" font-family="Arial, Helvetica, sans-serif" font-size="10" font-weight="400" fill="#0f172a" text-anchor="start">TJHSST</text><polyline points="78.00,329.88 193.14,331.24 308.29,348.24 423.43,340.08 538.57,348.24 653.71,325.80 768.86,382.92 884.00,361.16" fill="none" stroke="#1d4ed8" stroke-width="2.5" stroke-linejoin="round" stroke-linecap="round" /><circle cx="78.00" cy="329.88" r="4" fill="#1d4ed8" stroke="#ffffff" /><text x="78.00" y="321.88" font-family="Arial, Helvetica, sans-serif" font-size="9" font-weight="400" fill="#1d4ed8" text-anchor="middle">159</text><circle cx="193.14" cy="331.24" r="4" fill="#1d4ed8" stroke="#ffffff" /><text x="193.14" y="323.24" font-family="Arial, Helvetica, sans-serif" font-size="9" font-weight="400" fill="#1d4ed8" text-anchor="middle">157</text><circle cx="308.29" cy="348.24" r="4" fill="#1d4ed8" stroke="#ffffff" /><text x="308.29" y="340.24" font-family="Arial, Helvetica, sans-serif" font-size="9" font-weight="400" fill="#1d4ed8" text-anchor="middle">132</text><circle cx="423.43" cy="340.08" r="4" fill="#1d4ed8" stroke="#ffffff" /><text x="423.43" y="332.08" font-family="Arial, Helvetica, sans-serif" font-size="9" font-weight="400" fill="#1d4ed8" text-anchor="middle">144</text><circle cx="538.57" cy="348.24" r="4" fill="#1d4ed8" stroke="#ffffff" /><text x="538.57" y="340.24" font-family="Arial, Helvetica, sans-serif" font-size="9" font-weight="400" fill="#1d4ed8" text-anchor="middle">132</text><circle cx="653.71" cy="325.80" r="4" fill="#1d4ed8" stroke="#ffffff" /><text x="653.71" y="317.80" font-family="Arial, Helvetica, sans-serif" font-size="9" font-weight="400" fill="#1d4ed8" text-anchor="middle">165</text><circle cx="768.86" cy="382.92" r="4" fill="#1d4ed8" stroke="#ffffff" /><text x="768.86" y="374.92" font-family="Arial, Helvetica, sans-serif" font-size="9" font-weight="400" fill="#1d4ed8" text-anchor="middle">81</text><circle cx="884.00" cy="361.16" r="4" fill="#1d4ed8" stroke="#ffffff" /><text x="884.00" y="353.16" font-family="Arial, Helvetica, sans-serif" font-size="9" font-weight="400" fill="#1d4ed8" text-anchor="middle">113</text><text x="24.00" y="498.00" font-family="Arial, Helvetica, sans-serif" font-size="10" font-weight="400" fill="#475569" text-anchor="start">Totals are incomplete when source-backed NMSF rows are missing.</text></svg>
