<svg xmlns="http://www.w3.org/2000/svg" width="920" height="520" viewBox="0 0 920 520" role="img"><rect width="100%" height="100%" fill="#ffffff" /><text x="24.00" y="30.00" font-family="Arial, Helvetica, sans-serif" font-size="18" font-weight="700" fill="#0f172a" text-anchor="start">TJHSST, base public, and private observed NMSF counts</text><text x="24.00" y="52.00" font-family="Arial, Helvetica, sans-serif" font-size="11" font-weight="400" fill="#475569" text-anchor="start">Observed totals only; missing school-year sources are not counted as zero.</text><line x1="24" y1="60" x2="896" y2="60" stroke="#e2e8f0" /><line x1="78" y1="438" x2="884" y2="438" stroke="#334155" /><line x1="78" y1="98" x2="78" y2="438" stroke="#334155" /><line x1="73" y1="438.00" x2="884" y2="438.00" stroke="#e2e8f0" /><text x="68.00" y="442.00" font-family="Arial, Helvetica, sans-serif" font-size="10" font-weight="400" fill="#0f172a" text-anchor="end">0</text><line x1="73" y1="370.00" x2="884" y2="370.00" stroke="#e2e8f0" /><text x="68.00" y="374.00" font-family="Arial, Helvetica, sans-serif" font-size="10" font-weight="400" fill="#0f172a" text-anchor="end">100</text><line x1="73" y1="302.00" x2="884" y2="302.00" stroke="#e2e8f0" /><text x="68.00" y="306.00" font-family="Arial, Helvetica, sans-serif" font-size="10" font-weight="400" fill="#0f172a" text-anchor="end">200</text><line x1="73" y1="234.00" x2="884" y2="234.00" stroke="#e2e8f0" /><text x="68.00" y="238.00" font-family="Arial, Helvetica, sans-serif" font-size="10" font-weight="400" fill="#0f172a" text-anchor="end">300</text><line x1="73" y1="166.00" x2="884" y2="166.00" stroke="#e2e8f0" /><text x="68.00" y="170.00" font-family="Arial, Helvetica, sans-serif" font-size="10" font-weight="400" fill="#0f172a" text-anchor="end">400</text><line x1="73" y1="98.00" x2="884" y2="98.00" stroke="#e2e8f0" /><text x="68.00" y="102.00" font-family="Arial, Helvetica, sans-serif" font-size="10" font-weight="400" fill="#0f172a" text-anchor="end">500</text><text x="22.00" y="268.00" font-family="Arial, Helvetica, sans-serif" font-size="11" font-weight="400" fill="#0f172a" text-anchor="middle" transform="rotate(-90 22.00 268.00)">Observed NMSF count</text><text x="78.00" y="464.00" font-family="Arial, Helvetica, sans-serif" font-size="11" font-weight="400" fill="#0f172a" text-anchor="middle">2019</text><text x="193.14" y="464.00" font-family="Arial, Helvetica, sans-serif" font-size="11" font-weight="400" fill="#0f172a" text-anchor="middle">2020</text><text x="308.29" y="464.00" font-family="Arial, Helvetica, sans-serif" font-size="11" font-weight="400" fill="#0f172a" text-anchor="middle">2021</text><text x="423.43" y="464.00" font-family="Arial, Helvetica, sans-serif" font-size="11" font-weight="400" fill="#0f172a" text-anchor="middle">2022</text><text x="538.57" y="464.00" font-family="Arial, Helvetica, sans-serif" font-size="11" font-weight="400" fill="#0f172a" text-anchor="middle">2023</text><text x="653.71" y="464.00" font-family="Arial, Helvetica, sans-serif" font-size="11" font-weight="400" fill="#0f172a" text-anchor="middle">2024</text><text x="768.86" y="464.00" font-family="Arial, Helvetica, sans-serif" font-size="11" font-weight="400" fill="#0f172a" text-anchor="middle">2025</text><text x="884.00" y="464.00" font-family="Arial, Helvetica, sans-serif" font-size="11" font-weight="400" fill="#0f172a" text-anchor="middle">2026</text><rect x="78" y="68" width="12" height="12" fill="#1d4ed8" /><text x="96.00" y="78.00" font-family="Arial, Helvetica, sans-serif" font-size="10" font-weight="400" fill="#0f172a" text-anchor="start">TJHSST</text><polyline points="78.00,329.88 193.14,331.24 308.29,348.24 423.43,340.08 538.57,348.24 653.71,325.80 768.86,382.92 884.00,361.16" fill="none" stroke="#1d4ed8" stroke-width="2.5" stroke-linejoin="round" stroke-linecap="round" /><circle cx="78.00" cy="329.88" r="4" fill="#1d4ed8" stroke="#ffffff" /><text x="78.00" y="321.88" font-family="Arial, Helvetica, sans-serif" font-size="9" font-weight="400" fill="#1d4ed8" text-anchor="middle">159</text><circle cx="193.14" cy="331.24" r="4" fill="#1d4ed8" stroke="#ffffff" /><text x="193.14" y="323.24" font-family="Arial, Helvetica, sans-serif" font-size="9" font-weight="400" fill="#1d4ed8" text-anchor="middle">157</text><circle cx="308.29" cy="348.24" r="4" fill="#1d4ed8" stroke="#ffffff" /><text x="308.29" y="340.24" font-family="Arial, Helvetica, sans-serif" font-size="9" font-weight="400" fill="#1d4ed8" text-anchor="middle">132</text><circle cx="423.43" cy="340.08" r="4" fill="#1d4ed8" stroke="#ffffff" /><text x="423.43" y="332.08" font-family="Arial, Helvetica, sans-serif" font-size="9" font-weight="400" fill="#1d4ed8" text-anchor="middle">144</text><circle cx="538.57" cy="348.24" r="4" fill="#1d4ed8" stroke="#ffffff" /><text x="538.57" y="340.24" font-family="Arial, Helvetica, sans-serif" font-size="9" font-weight="400" fill="#1d4ed8" text-anchor="middle">132</text><circle cx="653.71" cy="325.80" r="4" fill="#1d4ed8" stroke="#ffffff" /><text x="653.71" y="317.80" font-family="Arial, Helvetica, sans-serif" font-size="9" font-weight="400" fill="#1d4ed8" text-anchor="middle">165</text><circle cx="768.86" cy="382.92" r="4" fill="#1d4ed8" stroke="#ffffff" /><text x="768.86" y="374.92" font-family="Arial, Helvetica, sans-serif" font-size="9" font-weight="400" fill="#1d4ed8" text-anchor="middle">81</text><circle cx="884.00" cy="361.16" r="4" fill="#1d4ed8" stroke="#ffffff" /><text x="884.00" y="353.16" font-family="Arial, Helvetica, sans-serif" font-size="9" font-weight="400" fill="#1d4ed8" text-anchor="middle">113</text><rect x="154" y="68" width="12" height="12" fill="#0f766e" /><text x="172.00" y="78.00" font-family="Arial, Helvetica, sans-serif" font-size="10" font-weight="400" fill="#0f172a" text-anchor="start">Base public schools</text><polyline points="78.00,373.40 193.14,383.60 308.29,383.60 423.43,389.72 538.57,324.44 653.71,318.32 768.86,320.36 884.00,280.24" fill="none" stroke="#0f766e" stroke-width="2.5" stroke-linejoin="round" stroke-linecap="round" /><circle cx="78.00" cy="373.40" r="4" fill="#0f766e" stroke="#ffffff" /><text x="78.00" y="365.40" font-family="Arial, Helvetica, sans-serif" font-size="9" font-weight="400" fill="#0f766e" text-anchor="middle">95</text><circle cx="193.14" cy="383.60" r="4" fill="#0f766e" stroke="#ffffff" /><text x="193.14" y="375.60" font-family="Arial, Helvetica, sans-serif" font-size="9" font-weight="400" fill="#0f766e" text-anchor="middle">80</text><circle cx="308.29" cy="383.60" r="4" fill="#0f766e" stroke="#ffffff" /><text x="308.29" y="375.60" font-family="Arial, Helvetica, sans-serif" font-size="9" font-weight="400" fill="#0f766e" text-anchor="middle">80</text><circle cx="423.43" cy="389.72" r="4" fill="#0f766e" stroke="#ffffff" /><text x="423.43" y="381.72" font-family="Arial, Helvetica, sans-serif" font-size="9" font-weight="400" fill="#0f766e" text-anchor="middle">71</text><circle cx="538.57" cy="324.44" r="4" fill="#0f766e" stroke="#ffffff" /><text x="538.57" y="316.44" font-family="Arial, Helvetica, sans-serif" font-size="9" font-weight="400" fill="#0f766e" text-anchor="middle">167</text><circle cx="653.71" cy="318.32" r="4" fill="#0f766e" stroke="#ffffff" /><text x="653.71" y="310.32" font-family="Arial, Helvetica, sans-serif" font-size="9" font-weight="400" fill="#0f766e" text-anchor="middle">176</text><circle cx="768.86" cy="320.36" r="4" fill="#0f766e" stroke="#ffffff" /><text x="768.86" y="312.36" font-family="Arial, Helvetica, sans-serif" font-size="9" font-weight="400" fill="#0f766e" text-anchor="middle">173</text><circle cx="884.00" cy="280.24" r="4" fill="#0f766e" stroke="#ffffff" /><text x="884.00" y="272.24" font-family="Arial, Helvetica, sans-serif" font-size="9" font-weight="400" fill="#0f766e" text-anchor="middle">232</text><rect x="308" y="68" width="12" height="12" fill="#b45309" /><text x="326.00" y="78.00" font-family="Arial, Helvetica, sans-serif" font-size="10" font-weight="400" fill="#0f172a" text-anchor="start">Private schools</text><polyline points="538.57,429.16 653.71,425.76 768.86,414.88 884.00,414.88" fill="none" stroke="#b45309" stroke-width="2.5" stroke-linejoin="round" stroke-linecap="round" /><circle cx="538.57" cy="429.16" r="4" fill="#b45309" stroke="#ffffff" /><text x="538.57" y="421.16" font-family="Arial, Helvetica, sans-serif" font-size="9" font-weight="400" fill="#b45309" text-anchor="middle">13</text><circle cx="653.71" cy="425.76" r="4" fill="#b45309" stroke="#ffffff" /><text x="653.71" y="417.76" font-family="Arial, Helvetica, sans-serif" font-size="9" font-weight="400" fill="#b45309" text-anchor="middle">18</text><circle cx="768.86" cy="414.88" r="4" fill="#b45309" stroke="#ffffff" /><text x="768.86" y="406.88" font-family="Arial, Helvetica, sans-serif" font-size="9" font-weight="400" fill="#b45309" text-anchor="middle">34</text><circle cx="884.00" cy="414.88" r="4" fill="#b45309" stroke="#ffffff" /><text x="884.00" y="406.88" font-family="Arial, Helvetica, sans-serif" font-size="9" font-weight="400" fill="#b45309" text-anchor="middle">34</text><text x="24.00" y="498.00" font-family="Arial, Helvetica, sans-serif" font-size="10" font-weight="400" fill="#475569" text-anchor="start">Base public excludes the TJHSST row. Private rows are unallocated non-public applicant buckets.</text></svg>
